<svg xmlns="http://www.w3.org/2000/svg" width="25" height="25" viewBox="0 0 26 26" fill="none">
<path d="M22.8862 19.674H20.5082C19.6084 19.674 19.3374 18.9453 17.7246 17.3314C16.315 15.973 15.7197 15.8041 15.3632 15.8041C14.87 15.8041 14.7356 15.9396 14.7356 16.6183V18.7576C14.7356 19.3362 14.5479 19.6751 13.0362 19.6751C11.5696 19.5765 10.1474 19.131 8.8868 18.3752C7.62615 17.6193 6.56311 16.5748 5.78523 15.3276C3.93823 13.0288 2.6531 10.3307 2.03204 7.448C2.03204 7.09145 2.16758 6.76826 2.84732 6.76826H5.22434C5.83528 6.76826 6.05526 7.04037 6.29504 7.66903C7.44915 11.0657 9.41853 14.0203 10.2182 14.0203C10.5247 14.0203 10.6581 13.8847 10.6581 13.1205V9.62173C10.557 8.02558 9.7094 7.89109 9.7094 7.31352C9.72013 7.16114 9.78983 7.01894 9.90371 6.91713C10.0176 6.81532 10.1667 6.76191 10.3193 6.76826H14.0558C14.5667 6.76826 14.7356 7.02264 14.7356 7.63358V12.3563C14.7356 12.8662 14.9545 13.035 15.1088 13.035C15.4153 13.035 15.6509 12.8662 16.2129 12.3053C17.4174 10.8363 18.4014 9.19967 19.1341 7.44696C19.2091 7.23653 19.3508 7.0564 19.5378 6.93404C19.7247 6.81169 19.9465 6.75384 20.1693 6.7693H22.5474C23.2605 6.7693 23.4117 7.12586 23.2605 7.63462C22.3956 9.57212 21.3254 11.4113 20.0682 13.1205C19.8117 13.5115 19.7096 13.7148 20.0682 14.1735C20.3038 14.5301 21.1379 15.2265 21.6977 15.8885C22.513 16.7017 23.1896 17.6421 23.7015 18.6721C23.9058 19.3352 23.5649 19.674 22.8862 19.674Z" fill="#818B9F"/>
</svg>
